# xmcd
#
# Track frame offsets:
#  150
#  17871
#  39598
#  60231
#  80906
#  102253
#  123932
#  143840
#  162774
#  183156
#
# Disc length: 2734 seconds
#
# Revision: 0
# Processed by: cddbd v1.5.2PL0 Copyright (c) Steve Scherf et al.
# Submitted via: AltoMP3 Maker 3.0
#
DISCID=7b0aac0a
DTITLE=Whitney Houston - Whitney Houston Grandes Éxitos
DYEAR=1900
DGENRE=
TTITLE0=Saving All My Love For You
TTITLE1=Greatest Love of All
TTITLE2=Didn't We Almost Have It All
TTITLE3=Where Do Broken Hearts Go
TTITLE4=One Moment In Time
TTITLE5=I Have Nothing
TTITLE6=I Always Love You
TTITLE7=Step by Step
TTITLE8=So Emotional
TTITLE9=I Wanna Dance With Somebody
EXTD=
EXTT0=
EXTT1=
EXTT2=
EXTT3=
EXTT4=
EXTT5=
EXTT6=
EXTT7=
EXTT8=
EXTT9=
PLAYORDER=
